<svg width="40" height="40" viewBox="0 0 40 40" fill="none" xmlns="http://www.w3.org/2000/svg">
<g clip-path="url(#clip0_137_54)">
<path d="M20.0002 3.3335C10.8002 3.3335 3.3335 10.8002 3.3335 20.0002C3.3335 29.2002 10.8002 36.6668 20.0002 36.6668C29.2002 36.6668 36.6668 29.2002 36.6668 20.0002C36.6668 10.8002 29.2002 3.3335 20.0002 3.3335ZM20.0002 8.3335C22.7668 8.3335 25.0002 10.5668 25.0002 13.3335C25.0002 16.1002 22.7668 18.3335 20.0002 18.3335C17.2335 18.3335 15.0002 16.1002 15.0002 13.3335C15.0002 10.5668 17.2335 8.3335 20.0002 8.3335ZM20.0002 32.0002C15.8335 32.0002 12.1502 29.8668 10.0002 26.6335C10.0502 23.3168 16.6668 21.5002 20.0002 21.5002C23.3168 21.5002 29.9502 23.3168 30.0002 26.6335C27.8502 29.8668 24.1668 32.0002 20.0002 32.0002Z" fill="black" fill-opacity="0.5"/>
</g>
<defs>
<clipPath id="clip0_137_54">
<rect width="40" height="40" fill="white"/>
</clipPath>
</defs>
</svg>
