<svg width="21" height="16" viewBox="0 0 21 16" fill="none" xmlns="http://www.w3.org/2000/svg">
<path d="M17.0667 0H3.01177C2.213 0 1.44694 0.316071 0.882126 0.87868C0.31731 1.44129 0 2.20435 0 3V13C0 13.7956 0.31731 14.5587 0.882126 15.1213C1.44694 15.6839 2.213 16 3.01177 16H17.0667C17.8654 16 18.6315 15.6839 19.1963 15.1213C19.7611 14.5587 20.0784 13.7956 20.0784 13V3C20.0784 2.20435 19.7611 1.44129 19.1963 0.87868C18.6315 0.316071 17.8654 0 17.0667 0ZM16.394 2L10.0392 6.75L3.68439 2H16.394ZM17.0667 14H3.01177C2.74551 14 2.49016 13.8946 2.30189 13.7071C2.11361 13.5196 2.00784 13.2652 2.00784 13V3.25L9.43686 8.8C9.61064 8.92982 9.822 9 10.0392 9C10.2564 9 10.4678 8.92982 10.6416 8.8L18.0706 3.25V13C18.0706 13.2652 17.9648 13.5196 17.7765 13.7071C17.5883 13.8946 17.3329 14 17.0667 14Z" fill="black" fill-opacity="0.5"/>
</svg>
