<svg width="40" height="40" viewBox="0 0 40 40" fill="none" xmlns="http://www.w3.org/2000/svg">
<g clip-path="url(#clip0_139_62)">
<path d="M19.9998 36.6665C21.8332 36.6665 23.3332 35.1665 23.3332 33.3332H16.6665C16.6665 35.1665 18.1665 36.6665 19.9998 36.6665ZM29.9998 26.6665V18.3332C29.9998 13.2165 27.2832 8.93317 22.4998 7.79984V6.6665C22.4998 5.28317 21.3832 4.1665 19.9998 4.1665C18.6165 4.1665 17.4998 5.28317 17.4998 6.6665V7.79984C12.7332 8.93317 9.99984 13.1998 9.99984 18.3332V26.6665L6.6665 29.9998V31.6665H33.3332V29.9998L29.9998 26.6665ZM26.6665 28.3332H13.3332V18.3332C13.3332 14.1998 15.8498 10.8332 19.9998 10.8332C24.1498 10.8332 26.6665 14.1998 26.6665 18.3332V28.3332Z" fill="black" fill-opacity="0.5"/>
</g>
<defs>
<clipPath id="clip0_139_62">
<rect width="40" height="40" fill="white"/>
</clipPath>
</defs>
</svg>
